<?xml version="1.0" encoding="UTF-8" standalone="no"?>
<!-- Created with Inkscape (http://www.inkscape.org/) -->

<svg
   xmlns:dc="http://purl.org/dc/elements/1.1/"
   xmlns:cc="http://creativecommons.org/ns#"
   xmlns:rdf="http://www.w3.org/1999/02/22-rdf-syntax-ns#"
   xmlns:svg="http://www.w3.org/2000/svg"
   xmlns="http://www.w3.org/2000/svg"
   xmlns:sodipodi="http://sodipodi.sourceforge.net/DTD/sodipodi-0.dtd"
   xmlns:inkscape="http://www.inkscape.org/namespaces/inkscape"
   width="85.599998mm"
   height="53.98mm"
   viewBox="0 0 85.599996 53.980001"
   version="1.1"
   id="svg8"
   inkscape:version="0.92.5 (2060ec1f9f, 2020-04-08)"
   sodipodi:docname="finetune.svg">
  <defs
     id="defs2" />
  <sodipodi:namedview
     id="base"
     pagecolor="#ffffff"
     bordercolor="#666666"
     borderopacity="1.0"
     inkscape:pageopacity="0.0"
     inkscape:pageshadow="2"
     inkscape:zoom="2.8"
     inkscape:cx="206.10124"
     inkscape:cy="80.395901"
     inkscape:document-units="mm"
     inkscape:current-layer="layer1"
     showgrid="false"
     units="mm"
     fit-margin-top="0"
     fit-margin-left="0"
     fit-margin-right="0"
     fit-margin-bottom="0"
     inkscape:window-width="1835"
     inkscape:window-height="921"
     inkscape:window-x="278"
     inkscape:window-y="221"
     inkscape:window-maximized="0" />
  <metadata
     id="metadata5">
    <rdf:RDF>
      <cc:Work
         rdf:about="">
        <dc:format>image/svg+xml</dc:format>
        <dc:type
           rdf:resource="http://purl.org/dc/dcmitype/StillImage" />
        <dc:title></dc:title>
      </cc:Work>
    </rdf:RDF>
  </metadata>
  <g
     inkscape:label="Layer 1"
     inkscape:groupmode="layer"
     id="layer1"
     transform="translate(0,-243.01999)">
    <path
       style="opacity:0;fill:#ffffff;fill-opacity:1;stroke:#009bff;stroke-width:0.09449405;stroke-miterlimit:4;stroke-dasharray:none;stroke-opacity:1"
       d="M 0.07556069,270.11563 V 243.27932 H 42.78687 85.498179 v 26.83631 26.83631 H 42.78687 0.07556069 Z"
       id="path919"
       inkscape:connector-curvature="0" />
    <g
       id="g2441">
      <g
         transform="matrix(0.26458333,0,0,0.2948709,0.10207611,251.23933)"
         id="g1594">
        <g
           transform="matrix(1.1144862,0,0,1,-3.9976849e-4,0)"
           id="g1678">
          <path
             id="path1574"
             style="fill:#4285f4"
             d="M 126.47,58.12 100.17,12.38 A 11.56,11.56 0 0 0 90.31,6.5 H 37.7 a 11.55,11.55 0 0 0 -9.86,5.88 L 1.53,58 a 11.48,11.48 0 0 0 0,11.44 l 26.3,46 a 11.77,11.77 0 0 0 9.86,6.09 H 90.3 a 11.73,11.73 0 0 0 9.87,-6.06 l 26.3,-45.74 a 11.73,11.73 0 0 0 0,-11.61 z"
             inkscape:connector-curvature="0" />
          <path
             id="path1576"
             style="opacity:0.07000002;isolation:isolate"
             d="m 79.64,42.47 -25.22,7.86 -5.83,3.33 8.41,8.42 -11.5,0.67 0.25,10.83 -6.38,8.1 39.82,39.82 H 90.3 a 11.73,11.73 0 0 0 9.87,-6.06 l 19.14,-33.29 z"
             inkscape:connector-curvature="0" />
          <rect
             id="rect1578"
             style="fill:#ffffff"
             height="21.75"
             width="4"
             y="53"
             x="62" />
          <path
             id="path1580"
             style="fill:#ffffff"
             d="M 44.93,63 H 48 V 76 H 44 V 63.93 A 0.93,0.93 0 0 1 44.93,63 Z"
             inkscape:connector-curvature="0" />
          <path
             id="path1582"
             style="fill:#ffffff"
             d="m 80,63 h 3.07 A 0.93,0.93 0 0 1 84,63.93 v 0 V 76 h -4 z"
             inkscape:connector-curvature="0" />
          <path
             id="path1584"
             style="fill:#ffffff"
             d="m 45,61 h 38 a 1,1 0 0 1 1,1 v 3 H 44 v -3 a 1,1 0 0 1 1,-1 z"
             inkscape:connector-curvature="0" />
          <rect
             id="rect1586"
             style="fill:#ffffff"
             ry="0.97000003"
             rx="0.97000003"
             height="12"
             width="32"
             y="42"
             x="48" />
          <rect
             id="rect1588"
             style="fill:#ffffff"
             ry="0.98000002"
             rx="0.98000002"
             height="10"
             width="13"
             y="72"
             x="39" />
          <rect
             id="rect1590"
             style="fill:#ffffff"
             ry="0.98000002"
             rx="0.98000002"
             height="10"
             width="13"
             y="72"
             x="76" />
          <rect
             id="rect1592"
             style="fill:#ffffff"
             ry="1.01"
             rx="1.01"
             height="10"
             width="14"
             y="72"
             x="57" />
        </g>
      </g>
      <g
         transform="matrix(1.1144862,0,0,1.2401832,-50.351659,-55.094827)"
         id="g1691">
        <g
           id="g1628"
           transform="matrix(0.26458333,0,0,0.23776399,88.171239,247.00718)">
          <path
             id="path1616"
             style="fill:#4285f4"
             d="M 126.47,58.12 100.17,12.38 A 11.56,11.56 0 0 0 90.31,6.5 H 37.7 a 11.55,11.55 0 0 0 -9.86,5.88 L 1.53,58 a 11.48,11.48 0 0 0 0,11.44 l 26.3,46 a 11.77,11.77 0 0 0 9.86,6.09 H 90.3 a 11.73,11.73 0 0 0 9.87,-6.06 l 26.3,-45.74 a 11.73,11.73 0 0 0 0,-11.61 z"
             inkscape:connector-curvature="0" />
          <path
             id="path1618"
             style="opacity:0.07000002;isolation:isolate"
             d="M 94,38 76.4,46 H 60 L 49,35 42.23,46 H 42 l -8,4 7.65,7.65 L 40,89 72.5,121.5 h 17.8 a 11.73,11.73 0 0 0 9.87,-6.06 l 26,-45.25 z"
             inkscape:connector-curvature="0" />
          <rect
             style="fill:#ffffff"
             height="11"
             width="37"
             y="38"
             x="57"
             id="Rectangle-path" />
          <rect
             style="fill:#ffffff"
             height="3"
             width="16"
             y="64"
             x="42"
             data-name="Rectangle-path"
             id="Rectangle-path-2" />
          <rect
             style="fill:#ffffff"
             height="11"
             width="37"
             y="60"
             x="57"
             data-name="Rectangle-path"
             id="Rectangle-path-3" />
          <rect
             style="fill:#ffffff"
             height="3"
             width="16"
             y="86"
             x="42"
             data-name="Rectangle-path"
             id="Rectangle-path-4" />
          <rect
             style="fill:#ffffff"
             height="39"
             width="3"
             y="50"
             x="40"
             data-name="Rectangle-path"
             id="Rectangle-path-5" />
          <g
             id="Group">
            <rect
               style="fill:#ffffff"
               height="15"
               width="15"
               y="35"
               x="34"
               data-name="Rectangle-path"
               id="Rectangle-path-6" />
            <rect
               style="fill:#ffffff"
               height="11"
               width="37"
               y="82"
               x="57"
               data-name="Rectangle-path"
               id="Rectangle-path-7" />
          </g>
        </g>
      </g>
    </g>
  </g>
</svg>
