<?xml version="1.0" encoding="UTF-8" standalone="no"?>
<!-- Created with Inkscape (http://www.inkscape.org/) -->

<svg
   xmlns:dc="http://purl.org/dc/elements/1.1/"
   xmlns:cc="http://creativecommons.org/ns#"
   xmlns:rdf="http://www.w3.org/1999/02/22-rdf-syntax-ns#"
   xmlns:svg="http://www.w3.org/2000/svg"
   xmlns="http://www.w3.org/2000/svg"
   xmlns:sodipodi="http://sodipodi.sourceforge.net/DTD/sodipodi-0.dtd"
   xmlns:inkscape="http://www.inkscape.org/namespaces/inkscape"
   width="85.599998mm"
   height="53.98mm"
   viewBox="0 0 85.599998 53.98"
   version="1.1"
   id="svg1783"
   inkscape:version="0.92.5 (2060ec1f9f, 2020-04-08)"
   sodipodi:docname="observe.svg">
  <defs
     id="defs1777" />
  <sodipodi:namedview
     id="base"
     pagecolor="#ffffff"
     bordercolor="#666666"
     borderopacity="1.0"
     inkscape:pageopacity="0.0"
     inkscape:pageshadow="2"
     inkscape:zoom="1.979899"
     inkscape:cx="169.2727"
     inkscape:cy="89.609204"
     inkscape:document-units="mm"
     inkscape:current-layer="layer1"
     showgrid="false"
     units="mm"
     inkscape:window-width="1743"
     inkscape:window-height="769"
     inkscape:window-x="736"
     inkscape:window-y="305"
     inkscape:window-maximized="0" />
  <metadata
     id="metadata1780">
    <rdf:RDF>
      <cc:Work
         rdf:about="">
        <dc:format>image/svg+xml</dc:format>
        <dc:type
           rdf:resource="http://purl.org/dc/dcmitype/StillImage" />
        <dc:title></dc:title>
      </cc:Work>
    </rdf:RDF>
  </metadata>
  <g
     inkscape:label="Layer 1"
     inkscape:groupmode="layer"
     id="layer1"
     transform="translate(0,-243.02)">
    <g
       id="g2459">
      <g
         transform="matrix(0.29487446,0,0,0.2948709,0.10197034,251.23934)"
         id="g2347">
        <path
           inkscape:connector-curvature="0"
           d="M 126.47,58.12 100.17,12.38 A 11.56,11.56 0 0 0 90.31,6.5 H 37.7 a 11.55,11.55 0 0 0 -9.86,5.88 L 1.53,58 a 11.48,11.48 0 0 0 0,11.44 l 26.3,46 a 11.77,11.77 0 0 0 9.86,6.09 H 90.3 a 11.73,11.73 0 0 0 9.87,-6.06 l 26.3,-45.74 a 11.73,11.73 0 0 0 0,-11.61 z"
           style="fill:#4285f4"
           id="path2330" />
        <path
           inkscape:connector-curvature="0"
           d="m 96.59,45 -47.28,8.88 -18.4,15.38 6,6 -5.46,5 41.26,41.24 H 90.3 a 11.73,11.73 0 0 0 9.87,-6.06 L 124.59,73 Z"
           style="opacity:0.07000002;isolation:isolate"
           id="path2332" />
        <g
           id="art">
          <g
             id="g2344">
            <path
               inkscape:connector-curvature="0"
               d="M 74.2,89.3 H 54 a 1,1 0 0 1 -1,-1 v 0 a 1,1 0 0 1 1,-1 h 20.2 a 1,1 0 0 1 1,1 v 0 a 1,1 0 0 1 -1,1 z"
               style="fill:#ffffff"
               id="path2334" />
            <rect
               x="60.25"
               y="79.510002"
               width="7.7399998"
               height="8.7799997"
               style="fill:#ffffff"
               id="rect2336" />
            <g
               id="g2342">
              <path
                 inkscape:connector-curvature="0"
                 d="m 85.66,73 a 1.85,1.85 0 0 1 -1.33,-0.56 l -13.58,-14.11 -9.13,9.6 a 1.84,1.84 0 0 1 -2.5,0.16 l -6.9,-5.57 -7.31,9.71 a 1.85,1.85 0 0 1 -1.47,0.74 H 30.9 v 5.69 a 2.47,2.47 0 0 0 2.46,2.46 h 61.53 a 2.47,2.47 0 0 0 2.46,-2.46 V 73 Z"
                 style="fill:#ffffff"
                 id="path2338" />
              <path
                 inkscape:connector-curvature="0"
                 d="m 42.51,69.28 7.91,-10.5 a 1.85,1.85 0 0 1 2.63,-0.33 l 7.06,5.7 9.29,-9.77 a 1.85,1.85 0 0 1 1.33,-0.57 v 0 a 1.85,1.85 0 0 1 1.33,0.56 l 14.38,14.9 H 97.35 V 46.66 A 2.47,2.47 0 0 0 94.89,44.2 H 33.36 a 2.47,2.47 0 0 0 -2.46,2.46 v 22.62 z"
                 style="fill:#ffffff"
                 id="path2340" />
            </g>
          </g>
        </g>
      </g>
      <g
         transform="matrix(0.29487446,0,0,0.2948709,47.91397,251.23934)"
         id="g2378">
        <path
           inkscape:connector-curvature="0"
           d="M 126.47,58.12 100.17,12.38 A 11.56,11.56 0 0 0 90.31,6.5 H 37.7 a 11.55,11.55 0 0 0 -9.86,5.88 L 1.53,58 a 11.48,11.48 0 0 0 0,11.44 l 26.3,46 a 11.77,11.77 0 0 0 9.86,6.09 H 90.3 a 11.73,11.73 0 0 0 9.87,-6.06 l 26.3,-45.74 a 11.73,11.73 0 0 0 0,-11.61 z"
           style="fill:#4285f4"
           id="path2368" />
        <path
           inkscape:connector-curvature="0"
           d="M 100.17,115.44 118.89,82.89 94,58 83.16,64.16 53,34 34,46 52.69,64.69 34,70 56.39,92.39 53,94 80.5,121.5 h 9.8 a 11.73,11.73 0 0 0 9.87,-6.06 z"
           style="opacity:0.07000002;isolation:isolate"
           id="path2370" />
        <rect
           x="34"
           y="58"
           width="60"
           height="12"
           style="fill:#ffffff"
           id="rect2372" />
        <rect
           x="53"
           y="82"
           width="41"
           height="12"
           style="fill:#ffffff"
           id="rect2374" />
        <rect
           x="34"
           y="34"
           width="19"
           height="12"
           style="fill:#ffffff"
           id="rect2376" />
      </g>
    </g>
  </g>
</svg>
