<?xml version="1.0" encoding="UTF-8" standalone="no"?>
<svg
   xmlns:dc="http://purl.org/dc/elements/1.1/"
   xmlns:cc="http://creativecommons.org/ns#"
   xmlns:rdf="http://www.w3.org/1999/02/22-rdf-syntax-ns#"
   xmlns:svg="http://www.w3.org/2000/svg"
   xmlns="http://www.w3.org/2000/svg"
   xmlns:sodipodi="http://sodipodi.sourceforge.net/DTD/sodipodi-0.dtd"
   xmlns:inkscape="http://www.inkscape.org/namespaces/inkscape"
   sodipodi:docname="logo.svg"
   inkscape:version="0.92.5 (2060ec1f9f, 2020-04-08)"
   id="svg8"
   version="1.1"
   viewBox="0 0 67.907308 38.54443"
   height="38.54443"
   width="67.90731"
   inkscape:export-filename="/home/kornel/Documents/Ericsson/l7mp_logo.png"
   inkscape:export-xdpi="96"
   inkscape:export-ydpi="96">
  <defs
     id="defs2">
    <rect
       id="rect118"
       height="66.02002"
       width="62.544495"
       y="207.00511"
       x="94.25029" />
    <rect
       id="rect108"
       height="36.839436"
       width="71.237389"
       y="160.67441"
       x="106.99679" />
    <rect
       id="rect44"
       height="68.213699"
       width="177.64281"
       y="93.610863"
       x="12.609511" />
  </defs>
  <sodipodi:namedview
     fit-margin-bottom="0"
     fit-margin-right="0"
     fit-margin-left="0"
     fit-margin-top="0"
     inkscape:window-maximized="1"
     inkscape:window-y="27"
     inkscape:window-x="46"
     inkscape:window-height="1016"
     inkscape:window-width="1874"
     showgrid="false"
     inkscape:document-rotation="0"
     inkscape:current-layer="layer1"
     inkscape:document-units="mm"
     inkscape:cy="18.88185"
     inkscape:cx="47.226152"
     inkscape:zoom="11.313709"
     inkscape:pageshadow="2"
     inkscape:pageopacity="0.0"
     borderopacity="1.0"
     bordercolor="#666666"
     pagecolor="#ffffff"
     id="base" />
  <metadata
     id="metadata5">
    <rdf:RDF>
      <cc:Work
         rdf:about="">
        <dc:format>image/svg+xml</dc:format>
        <dc:type
           rdf:resource="http://purl.org/dc/dcmitype/StillImage" />
        <dc:title></dc:title>
      </cc:Work>
    </rdf:RDF>
  </metadata>
  <g
     transform="translate(-11.519041,-111.31638)"
     style="display:inline"
     id="layer1"
     inkscape:groupmode="layer"
     inkscape:label="Layer 1">
    <text
       style="font-style:normal;font-weight:normal;font-size:10.58329964px;line-height:1.25;font-family:sans-serif;white-space:pre;shape-inside:url(#rect44);fill:#000000;fill-opacity:1;stroke:none"
       id="text42"
       xml:space="preserve" />
    <text
       style="font-style:normal;font-weight:normal;font-size:10.58329964px;line-height:1.25;font-family:sans-serif;white-space:pre;shape-inside:url(#rect108);fill:#000000;fill-opacity:1;stroke:none"
       id="text106"
       xml:space="preserve" />
    <text
       style="font-style:normal;font-weight:normal;font-size:10.58329964px;line-height:1.25;font-family:sans-serif;white-space:pre;shape-inside:url(#rect118);fill:#000000;fill-opacity:1;stroke:none"
       id="text116"
       xml:space="preserve" />
    <path
       id="path956"
       d="m 20.565895,113.67913 c -1.02943,1.29692 -3.192068,4.01725 -4.805867,6.04519 -4.31253,5.41925 -4.261643,5.35349 -4.236762,5.47557 0.02786,0.13674 2.432223,10.65215 3.227724,14.11639 0.343683,1.49667 0.641218,2.75176 0.661188,2.78907 0.07238,0.13526 2.618674,1.40898 8.232944,4.11838 6.471798,3.12321 7.620471,3.66355 7.729847,3.63611 0.210318,-0.0528 15.36631,-7.34908 15.642782,-7.53064 0.115928,-0.0762 0.160906,-0.14266 0.209524,-0.30989 0.204161,-0.70229 1.927011,-8.20044 3.063958,-13.33489 0.730763,-3.30009 0.761566,-3.4502 0.73215,-3.56739 -0.05457,-0.21743 -1.612422,-2.20879 -8.521381,-10.8927 l -2.313581,-2.90795 -8.87542,0.002 -8.875421,0.002 z"
       style="fill:#1e90ff;fill-opacity:1;stroke:none;stroke-width:0.04025131;stroke-opacity:1"
       inkscape:export-xdpi="96"
       inkscape:export-ydpi="96"
       inkscape:connector-curvature="0" />
    <text
       id="text33"
       y="40.511105"
       x="54.470467"
       style="font-style:normal;font-weight:normal;font-size:10.58329964px;line-height:1.25;font-family:sans-serif;fill:#000000;fill-opacity:1;stroke:none;stroke-width:0.26458299"
       xml:space="preserve"><tspan
         style="font-size:35.27780151px;stroke-width:0.26458299"
         y="49.874844"
         x="54.470467"
         id="tspan31"
         sodipodi:role="line" /></text>
    <g
       aria-label="7 "
       style="font-style:normal;font-weight:normal;font-size:7.92999983px;line-height:0;font-family:sans-serif;display:inline;fill:#ffffff;fill-opacity:1;stroke:none;stroke-width:0.19825099"
       id="text50-1"
       transform="matrix(1.2875185,0,0,1.2875185,-3.1503637,-32.005523)">
      <path
         d="m 36.043232,114.2715 -4.027742,18.08045 h -3.568509 l 3.393341,-16.30941 h -6.030795 l 0.374047,-1.77104 z"
         style="font-style:normal;font-variant:normal;font-weight:normal;font-stretch:normal;font-size:26.4333992px;line-height:0.94999999;font-family:HamburgerHeaven;-inkscape-font-specification:'HamburgerHeaven, Normal';font-variant-ligatures:normal;font-variant-caps:normal;font-variant-numeric:normal;fill:#ffffff;fill-opacity:1;stroke-width:0.19825099"
         id="path834"
         inkscape:connector-curvature="0"
         sodipodi:nodetypes="ccccccc" />
    </g>
    <path
       sodipodi:nodetypes="ccccscccsccccsccccccsccc"
       inkscape:connector-curvature="0"
       id="path829"
       style="font-style:normal;font-variant:normal;font-weight:normal;font-stretch:normal;font-size:26.43350029px;line-height:1.25;font-family:HamburgerHeaven;-inkscape-font-specification:'HamburgerHeaven, Normal';font-variant-ligatures:normal;font-variant-caps:normal;font-variant-numeric:normal;fill:#ffffff;fill-opacity:1;stroke:#1e90ff;stroke-width:0.89971071;stroke-miterlimit:4;stroke-dasharray:none;stroke-opacity:1"
       d="m 64.996692,125.09147 -3.370903,15.07646 c -0.08338,0.45002 -0.180427,1.15323 0.517852,1.17437 l -0.469036,2.12661 h -1.454892 c -1.036837,0 -1.862074,-0.2751 -2.475715,-0.82526 -0.613636,-0.55015 -0.631648,-1.23609 -0.381172,-2.47572 l 3.41246,-15.33037 c 0.438926,-1.70209 -0.391459,-2.47571 -1.618736,-2.47571 h -1.840914 l -4.686906,21.10706 h -4.25315 l 4.464725,-18.63135 c 0.479179,-1.78832 -0.412618,-2.47571 -1.682215,-2.47571 h -1.840916 l -4.655164,21.10706 h -4.25315 l 4.686904,-21.26577 h -1.509819 l 0.462402,-2.12658 H 59.34699 c 1.671636,0 3.036453,0.41262 4.09445,1.23786 1.163798,0.90987 1.682217,2.16889 1.555257,3.77705 z" />
    <path
       sodipodi:nodetypes="cccsccccccsccccsccccc"
       inkscape:connector-curvature="0"
       id="path831"
       style="font-style:normal;font-variant:normal;font-weight:normal;font-stretch:normal;font-size:26.43350029px;line-height:1.25;font-family:HamburgerHeaven;-inkscape-font-specification:'HamburgerHeaven, Normal';font-variant-ligatures:normal;font-variant-caps:normal;font-variant-numeric:normal;fill:#ffffff;fill-opacity:1;stroke:#1e90ff;stroke-width:0.89971071;stroke-miterlimit:4;stroke-dasharray:none;stroke-opacity:1"
       d="m 78.959864,124.62478 -0.84806,3.80881 c -0.371128,1.53996 -0.508599,2.17578 -1.215036,3.45965 -0.864373,1.15119 -2.232376,1.79975 -3.586611,1.79975 h -4.315908 l -2.125354,9.77592 h -4.253151 l 4.632087,-21.26577 h -1.476654 l 0.429237,-2.12658 h 8.284119 c 1.354237,0 2.465135,0.11529 3.332693,1.08859 0.867558,0.95217 1.248437,2.1054 1.142638,3.45963 z m -4.157932,-0.23158 c 0.06348,-0.5925 -0.105805,-1.10033 -0.507839,-1.52352 -0.380878,-0.44436 -0.878138,-0.66654 -1.491775,-0.66654 H 71.46924 l -1.966156,9.39501 h 2.473996 c 1.474385,-0.01 1.333333,-0.76895 1.730435,-2.26966 z" />
    <g
       transform="matrix(-1.2007462,0,0,-1.3435796,64.477476,297.45162)"
       id="g24"
       style="font-style:normal;font-weight:normal;font-size:7.92999983px;line-height:0;font-family:sans-serif;display:inline;fill:#ffffff;fill-opacity:1;stroke:none;stroke-width:0.19825099"
       aria-label="7 ">
      <path
         sodipodi:nodetypes="ccccccc"
         inkscape:connector-curvature="0"
         id="path22"
         style="font-style:normal;font-variant:normal;font-weight:normal;font-stretch:normal;font-size:26.4333992px;line-height:0.94999999;font-family:HamburgerHeaven;-inkscape-font-specification:'HamburgerHeaven, Normal';font-variant-ligatures:normal;font-variant-caps:normal;font-variant-numeric:normal;fill:#ffffff;fill-opacity:1;stroke-width:0.19825099"
         d="m 36.043232,114.2715 -4.027742,18.08045 h -3.568509 l 3.393341,-16.30941 h -6.030795 l 0.374047,-1.77104 z" />
    </g>
  </g>
</svg>
