<?xml version="1.0" encoding="UTF-8" standalone="no"?>
<svg
   xmlns:dc="http://purl.org/dc/elements/1.1/"
   xmlns:cc="http://creativecommons.org/ns#"
   xmlns:rdf="http://www.w3.org/1999/02/22-rdf-syntax-ns#"
   xmlns:svg="http://www.w3.org/2000/svg"
   xmlns="http://www.w3.org/2000/svg"
   xmlns:sodipodi="http://sodipodi.sourceforge.net/DTD/sodipodi-0.dtd"
   xmlns:inkscape="http://www.inkscape.org/namespaces/inkscape"
   sodipodi:docname="logo.svg"
   inkscape:version="0.92.5 (2060ec1f9f, 2020-04-08)"
   id="svg8"
   version="1.1"
   viewBox="0 0 55.073771 29.936983"
   height="29.936983"
   width="55.073772"
   inkscape:export-filename="/home/kornel/Documents/Ericsson/l7mp_logo.png"
   inkscape:export-xdpi="96"
   inkscape:export-ydpi="96">
  <defs
     id="defs2">
    <rect
       id="rect118"
       height="66.02002"
       width="62.544495"
       y="207.00511"
       x="94.25029" />
    <rect
       id="rect108"
       height="36.839436"
       width="71.237389"
       y="160.67441"
       x="106.99679" />
    <rect
       id="rect44"
       height="68.213699"
       width="177.64281"
       y="93.610863"
       x="12.609511" />
  </defs>
  <sodipodi:namedview
     fit-margin-bottom="0"
     fit-margin-right="0"
     fit-margin-left="0"
     fit-margin-top="0"
     inkscape:window-maximized="1"
     inkscape:window-y="27"
     inkscape:window-x="46"
     inkscape:window-height="1376"
     inkscape:window-width="2514"
     showgrid="false"
     inkscape:document-rotation="0"
     inkscape:current-layer="layer1"
     inkscape:document-units="mm"
     inkscape:cy="13.564812"
     inkscape:cx="30.460722"
     inkscape:zoom="22.627417"
     inkscape:pageshadow="2"
     inkscape:pageopacity="0.0"
     borderopacity="1.0"
     bordercolor="#666666"
     pagecolor="#ffffff"
     id="base" />
  <metadata
     id="metadata5">
    <rdf:RDF>
      <cc:Work
         rdf:about="">
        <dc:format>image/svg+xml</dc:format>
        <dc:type
           rdf:resource="http://purl.org/dc/dcmitype/StillImage" />
        <dc:title />
      </cc:Work>
    </rdf:RDF>
  </metadata>
  <g
     transform="translate(-11.51904,-111.31638)"
     style="display:inline"
     id="layer1"
     inkscape:groupmode="layer"
     inkscape:label="Layer 1">
    <text
       style="font-style:normal;font-weight:normal;font-size:10.5833px;line-height:1.25;font-family:sans-serif;white-space:pre;shape-inside:url(#rect44);fill:#000000;fill-opacity:1;stroke:none;"
       id="text42"
       xml:space="preserve" />
    <text
       style="font-style:normal;font-weight:normal;font-size:10.5833px;line-height:1.25;font-family:sans-serif;white-space:pre;shape-inside:url(#rect108);fill:#000000;fill-opacity:1;stroke:none;"
       id="text106"
       xml:space="preserve" />
    <text
       style="font-style:normal;font-weight:normal;font-size:10.5833px;line-height:1.25;font-family:sans-serif;white-space:pre;shape-inside:url(#rect118);fill:#000000;fill-opacity:1;stroke:none;"
       id="text116"
       xml:space="preserve" />
    <path
       id="path956"
       d="m 18.545622,113.1515 c -0.799545,1.0073 -2.47924,3.12015 -3.732658,4.69523 -3.349489,4.20906 -3.309966,4.15798 -3.290642,4.2528 0.02164,0.10621 1.889078,8.2734 2.506935,10.96403 0.266934,1.16245 0.498026,2.13726 0.513536,2.16624 0.05622,0.10505 2.033892,1.09434 6.394427,3.19869 5.026567,2.42576 5.918728,2.84544 6.003679,2.82412 0.163351,-0.041 11.934826,-5.70793 12.149558,-5.84895 0.09004,-0.0592 0.124974,-0.1108 0.162735,-0.24069 0.15857,-0.54546 1.496686,-6.36918 2.379739,-10.35704 0.567575,-2.56314 0.591499,-2.67974 0.568652,-2.77075 -0.04239,-0.16888 -1.252348,-1.71555 -6.618453,-8.46023 l -1.79693,-2.25857 -6.893431,0.002 -6.893431,0.002 z"
       style="fill:#1e90ff;fill-opacity:1;stroke:none;stroke-width:0.0312627;stroke-opacity:1"
       inkscape:export-xdpi="96"
       inkscape:export-ydpi="96" />
    <g
       aria-label="L "
       transform="scale(0.98130794,1.0190481)"
       style="font-style:normal;font-weight:normal;font-size:8.08104038px;line-height:0;font-family:sans-serif;fill:#ffffff;fill-opacity:1;stroke:none;stroke-width:0.20202699"
       id="text50">
      <path
         d="m 27.581128,133.61736 -0.413331,1.80477 h -5.65677 c -0.879942,0 -1.580304,-0.23345 -2.101086,-0.70036 -0.520782,-0.48487 -0.745257,-1.18523 -0.673425,-2.10108 l 3.710918,-15.24635 h -1.238737 l 0.40369,-1.80477 h 4.57929 l -3.845603,17.05112 c -0.05387,0.66445 0.251413,0.99667 0.915858,0.99667 z"
         style="font-style:normal;font-variant:normal;font-weight:normal;font-stretch:normal;font-size:26.93700027px;line-height:0.94999999;font-family:HamburgerHeaven;-inkscape-font-specification:'HamburgerHeaven, Normal';font-variant-ligatures:normal;font-variant-caps:normal;font-variant-numeric:normal;fill:#ffffff;fill-opacity:1;stroke-width:0.20202699"
         id="path837"
         inkscape:connector-curvature="0"
         sodipodi:nodetypes="ccscccccccsc" />
    </g>
    <text
       id="text33"
       y="40.511105"
       x="54.470467"
       style="font-style:normal;font-weight:normal;font-size:10.5833px;line-height:1.25;font-family:sans-serif;fill:#000000;fill-opacity:1;stroke:none;stroke-width:0.264583"
       xml:space="preserve"><tspan
         style="font-size:35.2778px;stroke-width:0.264583"
         y="40.511105"
         x="54.470467"
         id="tspan31"
         sodipodi:role="line" /></text>
    <g
       aria-label="7 "
       style="font-style:normal;font-weight:normal;font-size:7.92999983px;line-height:0;font-family:sans-serif;display:inline;fill:#ffffff;fill-opacity:1;stroke:none;stroke-width:0.19825099"
       id="text50-1"
       transform="translate(-0.90632716)">
      <path
         d="m 36.043232,114.2715 -4.027742,18.08045 h -3.568509 l 3.393341,-16.30941 h -6.030795 l 0.374047,-1.77104 z"
         style="font-style:normal;font-variant:normal;font-weight:normal;font-stretch:normal;font-size:26.4333992px;line-height:0.94999999;font-family:HamburgerHeaven;-inkscape-font-specification:'HamburgerHeaven, Normal';font-variant-ligatures:normal;font-variant-caps:normal;font-variant-numeric:normal;fill:#ffffff;fill-opacity:1;stroke-width:0.19825099"
         id="path834"
         inkscape:connector-curvature="0"
         sodipodi:nodetypes="ccccccc" />
    </g>
    <path
       sodipodi:nodetypes="ccccscccsccccsccccccsccc"
       inkscape:connector-curvature="0"
       id="path829"
       style="font-style:normal;font-variant:normal;font-weight:normal;font-stretch:normal;font-size:26.43350029px;line-height:1.25;font-family:HamburgerHeaven;-inkscape-font-specification:'HamburgerHeaven, Normal';font-variant-ligatures:normal;font-variant-caps:normal;font-variant-numeric:normal;fill:#ffffff;fill-opacity:1;stroke:#1e90ff;stroke-width:0.74929303;stroke-miterlimit:4;stroke-dasharray:none;stroke-opacity:1"
       d="m 53.917864,122.32208 -2.80734,12.55591 c -0.06944,0.37477 -0.150263,0.96042 0.431274,0.97804 l -0.39062,1.77105 h -1.211656 c -0.863494,0 -1.550765,-0.22909 -2.061813,-0.68728 -0.511047,-0.45818 -0.526047,-1.02944 -0.317447,-2.06181 l 2.84195,-12.76738 c 0.365544,-1.41751 -0.326013,-2.06181 -1.348108,-2.06181 h -1.533143 l -3.903327,17.57828 h -3.542089 l 3.718292,-15.51647 c 0.399067,-1.48934 -0.343635,-2.06181 -1.400975,-2.06181 h -1.533143 l -3.876893,17.57828 h -3.542089 l 3.903326,-17.71045 h -1.257401 l 0.385096,-1.77104 h 12.740947 c 1.392164,0 2.528804,0.34363 3.409921,1.0309 0.969229,0.75776 1.400976,1.80629 1.295242,3.14559 z" />
    <path
       sodipodi:nodetypes="cccsccccccsccccsccccc"
       inkscape:connector-curvature="0"
       id="path831"
       style="font-style:normal;font-variant:normal;font-weight:normal;font-stretch:normal;font-size:26.43350029px;line-height:1.25;font-family:HamburgerHeaven;-inkscape-font-specification:'HamburgerHeaven, Normal';font-variant-ligatures:normal;font-variant-caps:normal;font-variant-numeric:normal;fill:#ffffff;fill-opacity:1;stroke:#1e90ff;stroke-width:0.74929303;stroke-miterlimit:4;stroke-dasharray:none;stroke-opacity:1"
       d="m 66.221549,121.93342 -0.706277,3.17202 c -0.309081,1.28251 -0.42357,1.81203 -1.011901,2.88125 -0.719863,0.95874 -1.859156,1.49887 -2.986985,1.49887 h -3.594355 l -1.770028,8.14152 h -3.542089 l 3.857673,-17.71045 h -1.22978 l 0.357475,-1.77104 h 6.899143 c 1.127829,0 2.053002,0.096 2.775518,0.90658 0.722516,0.793 1.039718,1.75342 0.951606,2.88125 z m -3.462789,-0.19288 c 0.05287,-0.49343 -0.08811,-0.91636 -0.422936,-1.26881 -0.317202,-0.37007 -0.731327,-0.5551 -1.242374,-0.5551 h -1.110207 l -1.637446,7.82432 h 2.060382 c 1.227891,-0.008 1.110421,-0.6404 1.441133,-1.89021 z" />
  </g>
</svg>
