<?xml version="1.0" encoding="UTF-8" standalone="no"?>
<!-- Created with Inkscape (http://www.inkscape.org/) -->

<svg
   xmlns:dc="http://purl.org/dc/elements/1.1/"
   xmlns:cc="http://creativecommons.org/ns#"
   xmlns:rdf="http://www.w3.org/1999/02/22-rdf-syntax-ns#"
   xmlns:svg="http://www.w3.org/2000/svg"
   xmlns="http://www.w3.org/2000/svg"
   xmlns:sodipodi="http://sodipodi.sourceforge.net/DTD/sodipodi-0.dtd"
   xmlns:inkscape="http://www.inkscape.org/namespaces/inkscape"
   width="85.599998mm"
   height="53.98mm"
   viewBox="0 0 85.599996 53.980001"
   version="1.1"
   id="svg8"
   inkscape:version="0.92.5 (2060ec1f9f, 2020-04-08)"
   sodipodi:docname="connect.svg">
  <defs
     id="defs2" />
  <sodipodi:namedview
     id="base"
     pagecolor="#ffffff"
     bordercolor="#666666"
     borderopacity="1.0"
     inkscape:pageopacity="0.0"
     inkscape:pageshadow="2"
     inkscape:zoom="2.8"
     inkscape:cx="129.31553"
     inkscape:cy="94.681616"
     inkscape:document-units="mm"
     inkscape:current-layer="layer1"
     showgrid="false"
     units="mm"
     fit-margin-top="0"
     fit-margin-left="0"
     fit-margin-right="0"
     fit-margin-bottom="0"
     inkscape:window-width="1730"
     inkscape:window-height="830"
     inkscape:window-x="326"
     inkscape:window-y="291"
     inkscape:window-maximized="0" />
  <metadata
     id="metadata5">
    <rdf:RDF>
      <cc:Work
         rdf:about="">
        <dc:format>image/svg+xml</dc:format>
        <dc:type
           rdf:resource="http://purl.org/dc/dcmitype/StillImage" />
        <dc:title></dc:title>
      </cc:Work>
    </rdf:RDF>
  </metadata>
  <g
     inkscape:label="Layer 1"
     inkscape:groupmode="layer"
     id="layer1"
     transform="translate(0,-243.01999)">
    <path
       style="opacity:0;fill:#ffffff;fill-opacity:1;stroke:#009bff;stroke-width:0.09449405;stroke-miterlimit:4;stroke-dasharray:none;stroke-opacity:1"
       d="M 0.07556069,270.11563 V 243.27932 H 42.78687 85.498179 v 26.83631 26.83631 H 42.78687 0.07556069 Z"
       id="path919"
       inkscape:connector-curvature="0" />
    <g
       id="g913"
       transform="translate(0.12280763,3.1424855)">
      <g
         transform="matrix(0.29487129,0,0,0.29487129,-0.02040775,248.09696)"
         id="g833">
        <path
           inkscape:connector-curvature="0"
           d="M 126.47,58.12 100.17,12.38 A 11.56,11.56 0 0 0 90.31,6.5 H 37.7 a 11.55,11.55 0 0 0 -9.86,5.88 L 1.53,58 a 11.48,11.48 0 0 0 0,11.44 l 26.3,46 a 11.77,11.77 0 0 0 9.86,6.09 H 90.3 a 11.73,11.73 0 0 0 9.87,-6.06 l 26.3,-45.74 a 11.73,11.73 0 0 0 0,-11.61 z"
           style="fill:#4285f4"
           id="path817" />
        <path
           inkscape:connector-curvature="0"
           d="M 80.69,39.31 50,45 60.24,55.24 33,67 52,86 50.25,88.63 83.11,121.5 h 7.19 a 11.73,11.73 0 0 0 9.87,-6.06 l 20.69,-36 z"
           style="opacity:0.07000002;isolation:isolate"
           id="path819" />
        <rect
           x="79.5"
           y="61"
           width="13.5"
           height="6"
           style="fill:#ffffff"
           id="rect821" />
        <rect
           x="75"
           y="45"
           width="6"
           height="38"
           style="fill:#ffffff"
           id="rect823" />
        <rect
           x="33"
           y="61"
           width="12"
           height="6"
           style="fill:#ffffff"
           id="rect825" />
        <path
           inkscape:connector-curvature="0"
           d="m 51,39 h 29 a 1,1 0 0 1 1,1 v 0 5 H 50 v -5 a 1,1 0 0 1 1,-1 z"
           style="fill:#ffffff"
           id="path827" />
        <path
           inkscape:connector-curvature="0"
           d="m 50,83 h 31 v 5 a 1,1 0 0 1 -1,1 H 51 a 1,1 0 0 1 -1,-1 v 0 z"
           style="fill:#ffffff"
           id="path829" />
        <rect
           x="44"
           y="52"
           width="24"
           height="24"
           rx="0.88999999"
           ry="0.88999999"
           style="fill:#ffffff"
           id="rect831" />
      </g>
      <g
         transform="matrix(0.29487129,0,0,0.29487129,47.790867,248.09696)"
         id="g873">
        <path
           inkscape:connector-curvature="0"
           d="M 126.47,58.12 100.17,12.38 A 11.56,11.56 0 0 0 90.31,6.5 H 37.7 a 11.55,11.55 0 0 0 -9.86,5.88 L 1.53,58 a 11.48,11.48 0 0 0 0,11.44 l 26.3,46 a 11.77,11.77 0 0 0 9.86,6.09 H 90.3 a 11.73,11.73 0 0 0 9.87,-6.06 l 26.3,-45.74 a 11.73,11.73 0 0 0 0,-11.61 z"
           style="fill:#4285f4"
           id="path853" />
        <path
           inkscape:connector-curvature="0"
           d="m 87.64,40.3 -20.91,10.05 -10,-10 -16.34,16.42 10.88,10.88 -10.9,20 33.88,33.85 H 90.3 a 11.73,11.73 0 0 0 9.87,-6.06 L 123,75.69 Z"
           style="opacity:0.07000002;isolation:isolate"
           id="path855" />
        <rect
           x="47"
           y="54.5"
           width="5"
           height="19.5"
           style="fill:#ffffff"
           id="rect857" />
        <rect
           x="76"
           y="52.130001"
           width="5"
           height="21.82"
           style="fill:#ffffff"
           id="rect859" />
        <rect
           x="54.380001"
           y="47"
           width="19.25"
           height="5"
           style="fill:#ffffff"
           id="rect861" />
        <rect
           x="54.380001"
           y="76"
           width="19.25"
           height="5"
           style="fill:#ffffff"
           id="rect863" />
        <rect
           x="40"
           y="40"
           width="17"
           height="17"
           rx="1"
           ry="1"
           style="fill:#ffffff"
           id="rect865" />
        <rect
           x="71"
           y="40"
           width="17"
           height="17"
           rx="1"
           ry="1"
           style="fill:#ffffff"
           id="rect867" />
        <rect
           x="40"
           y="71"
           width="17"
           height="17"
           rx="1"
           ry="1"
           style="fill:#ffffff"
           id="rect869" />
        <rect
           x="71"
           y="71"
           width="17"
           height="17"
           rx="1"
           ry="1"
           style="fill:#ffffff"
           id="rect871" />
      </g>
    </g>
  </g>
</svg>
