<?xml version="1.0" encoding="UTF-8" standalone="no"?>
<!-- Created with Inkscape (http://www.inkscape.org/) -->

<svg
   version="1.1"
   id="svg2"
   xmlSpace="preserve"
   width="422.44461"
   height="316.828"
   viewBox="0 0 422.44461 316.828"
   sodipodiDocname="376277-PBR7WX-805.svg"
   xmlnsInkscape="http://www.inkscape.org/namespaces/inkscape"
   xmlnsSodipodi="http://sodipodi.sourceforge.net/DTD/sodipodi-0.dtd"
   xmlns="http://www.w3.org/2000/svg"
   xmlnsSvg="http://www.w3.org/2000/svg"><defs
     id="defs6"><clipPath
       clipPathUnits="userSpaceOnUse"
       id="clipPath106"><path
         d="m 1680.84,1116.88 h 3001.55 v 580.93 H 1680.84 Z"
         id="path104" /></clipPath></defs><sodipodiNamedview
     id="namedview4"
     pagecolor="#ffffff"
     bordercolor="#666666"
     borderopacity="1.0"
     inkscapePageshadow="2"
     inkscapePageopacity="0.0"
     inkscapePagecheckerboard="0"
     inkscapeShowpageshadow="0"
     inkscapeDeskcolor="#d1d1d1"
     showgrid="false" /><g
     id="g8"
     inkscapeGroupmode="layer"
     inkscapeLabel="ink_ext_XXXXXX"
     transform="matrix(1.3333333,0,0,-1.3333333,-201.87404,465.74399)"><g
       id="g10"
       transform="scale(0.1)"><path
         d="m 4682.39,2049.55 c -112.15,167.49 -267.45,311.7 -447.89,418.92 -286.34,170.12 -621.95,277.52 -963.39,271.63 -319.71,-5.52 -657.97,-152.26 -831.69,-456.56 -140.99,-246.96 -184.08,-476.84 -412.43,-661.32 -157.7,-127.42 -411.09,-169.68 -489.79,-348.12 -22.07,-50.04 -26.2,-103.34 -21.3,-157.23 h 3166.49 v 932.68"
         style="fill:#e2eef9;fill-opacity:1;fill-rule:nonzero;stroke:none"
         id="path60" /><path
         d="m 2663.63,2338.91 c 15.95,14.52 32.87,11.94 41.65,9.05 7.7,19.84 24.28,42.45 59.9,42.45 63.45,0 68.53,-62.43 68.53,-62.43 44.68,13.52 53.31,-26.01 53.31,-27.57 h -240.14 c 0,25.49 16.75,38.5 16.75,38.5"
         style="fill:#ffffff;fill-opacity:1;fill-rule:nonzero;stroke:none"
         id="path62" /><path
         d="m 3873.08,2224.41 c 11.62,0 22.51,-3.14 31.95,-8.6 18.05,31.48 51.35,52.68 89.56,52.68 35.67,0 67.14,-18.45 85.85,-46.53 9.87,33.82 40.44,58.49 76.66,58.49 41.11,0 74.94,-31.77 79.49,-72.64 3.3,0.53 6.67,0.89 10.12,0.89 25.08,0 46.81,-14.52 57.72,-35.79 h -494.77 c 6.77,29.51 32.56,51.5 63.42,51.5"
         style="fill:#ffffff;fill-opacity:1;fill-rule:nonzero;stroke:none"
         id="path64" /><path
         d="m 3591.01,3458.9 c 0,-18.88 -15.31,-34.18 -34.18,-34.18 -18.88,0 -34.18,15.3 -34.18,34.18 0,18.87 15.3,34.18 34.18,34.18 18.87,0 34.18,-15.31 34.18,-34.18"
         style="fill:#e2eef9;fill-opacity:1;fill-rule:nonzero;stroke:none"
         id="path66" /><path
         d="m 2805.35,2744.77 c 0,-12.63 -10.23,-22.87 -22.86,-22.87 -12.63,0 -22.87,10.24 -22.87,22.87 0,12.63 10.24,22.86 22.87,22.86 12.63,0 22.86,-10.23 22.86,-22.86"
         style="fill:#769ad7;fill-opacity:1;fill-rule:nonzero;stroke:none"
         id="path68" /><path
         d="m 3719.63,2864.99 -13.7,7.34 -2.02,2.02 -7.35,13.7 c -1.85,3.47 -6.82,3.47 -8.69,0 l -7.34,-13.7 -2.02,-2.02 -13.71,-7.34 c -3.46,-1.87 -3.46,-6.84 0,-8.7 l 13.71,-7.34 2.02,-2.02 7.34,-13.7 c 1.87,-3.47 6.84,-3.47 8.69,0 l 7.35,13.7 2.02,2.02 13.7,7.34 c 3.47,1.86 3.47,6.83 0,8.7"
         style="fill:#e2eef9;fill-opacity:1;fill-rule:nonzero;stroke:none"
         id="path70" /><path
         d="m 2912.18,3323.46 -17.28,9.26 c -1.07,0.58 -1.96,1.46 -2.54,2.54 l -9.25,17.27 c -2.35,4.37 -8.62,4.37 -10.96,0 l -9.26,-17.27 c -0.58,-1.08 -1.45,-1.96 -2.54,-2.54 l -17.26,-9.26 c -4.38,-2.34 -4.38,-8.61 0,-10.95 l 17.26,-9.26 c 1.09,-0.58 1.96,-1.46 2.54,-2.54 l 9.26,-17.27 c 2.34,-4.37 8.61,-4.37 10.96,0 l 9.25,17.27 c 0.58,1.08 1.47,1.96 2.54,2.54 l 17.28,9.26 c 4.36,2.34 4.36,8.61 0,10.95"
         style="fill:#b2d1f0;fill-opacity:1;fill-rule:nonzero;stroke:none"
         id="path72" /><path
         d="m 4110.22,2976.6 -20.88,11.2 c -1.3,0.7 -2.38,1.77 -3.07,3.07 l -11.2,20.89 c -2.83,5.28 -10.41,5.28 -13.24,0 l -11.2,-20.89 c -0.7,-1.3 -1.77,-2.37 -3.07,-3.07 l -20.89,-11.2 c -5.28,-2.83 -5.28,-10.4 0,-13.24 l 20.89,-11.2 c 1.3,-0.7 2.37,-1.76 3.07,-3.07 l 11.2,-20.88 c 2.83,-5.29 10.41,-5.29 13.24,0 l 11.2,20.88 c 0.69,1.31 1.77,2.37 3.07,3.07 l 20.88,11.2 c 5.29,2.84 5.29,10.41 0,13.24"
         style="fill:#b2d1f0;fill-opacity:1;fill-rule:nonzero;stroke:none"
         id="path74" /><path
         d="m 2482.44,3057.02 -19.12,10.25 c -1.2,0.64 -2.18,1.62 -2.82,2.81 l -10.25,19.12 c -2.59,4.84 -9.53,4.84 -12.12,0 l -10.26,-19.12 c -0.64,-1.19 -1.62,-2.17 -2.81,-2.81 l -19.12,-10.25 c -4.84,-2.6 -4.84,-9.53 0,-12.13 l 19.12,-10.25 c 1.19,-0.64 2.17,-1.62 2.81,-2.81 l 10.26,-19.12 c 2.59,-4.84 9.53,-4.84 12.12,0 l 10.25,19.12 c 0.64,1.19 1.62,2.17 2.82,2.81 l 19.12,10.25 c 4.84,2.6 4.84,9.53 0,12.13"
         style="fill:#769ad7;fill-opacity:1;fill-rule:nonzero;stroke:none"
         id="path76" /><path
         d="m 3759.28,3176.23 -14,7.5 -2.05,2.06 -7.51,13.99 c -1.89,3.54 -6.97,3.54 -8.86,0 l -7.51,-13.99 -2.06,-2.06 -13.99,-7.5 c -3.54,-1.9 -3.54,-6.98 0,-8.88 l 13.99,-7.5 2.06,-2.06 7.51,-13.99 c 1.89,-3.54 6.97,-3.54 8.86,0 l 7.51,13.99 2.05,2.06 14,7.5 c 3.54,1.9 3.54,6.98 0,8.88"
         style="fill:#769ad7;fill-opacity:1;fill-rule:nonzero;stroke:none"
         id="path78" /><path
         d="m 3369.9,1229.87 h -199.27 v 935.88 h 199.27 v -935.88"
         style="fill:#ffffff;fill-opacity:1;fill-rule:nonzero;stroke:none"
         id="path80" /><path
         d="m 3346.41,2112.3 c 0,40.25 -32.63,72.88 -72.87,72.88 -40.25,0 -72.88,-32.63 -72.88,-72.88 0,0 -9.41,-172.3 72.88,-264.02 82.28,91.72 72.87,264.02 72.87,264.02"
         style="fill:#e2eef9;fill-opacity:1;fill-rule:nonzero;stroke:none"
         id="path82" /><path
         d="m 3019.04,2506.91 c 0,0 -272.88,-132.15 -164.75,-521.86 0,0 57.74,195.9 242.88,246.63 l -78.13,275.23"
         style="fill:#769ad7;fill-opacity:1;fill-rule:nonzero;stroke:none"
         id="path84" /><path
         d="m 3530.49,2506.91 c 0,0 272.88,-132.15 164.74,-521.86 0,0 -57.73,195.9 -242.87,246.63 l 78.13,275.23"
         style="fill:#769ad7;fill-opacity:1;fill-rule:nonzero;stroke:none"
         id="path86" /><path
         d="m 3363.32,2150.4 h -185.48 c -7.32,0 -13.66,5.07 -15.28,12.21 l -10.18,44.91 c -2.22,9.79 5.23,19.13 15.28,19.13 h 205.84 c 10.05,0 17.51,-9.34 15.28,-19.13 l -10.19,-44.91 c -1.61,-7.14 -7.96,-12.21 -15.27,-12.21"
         style="fill:#374783;fill-opacity:1;fill-rule:nonzero;stroke:none"
         id="path88" /><path
         d="m 3002.91,2612.17 c 0,0 28.47,-261.37 116.45,-426.99 0,0 139.75,67.28 305.38,0 0,0 100.92,139.74 121.63,447.7 11.92,177.45 -2.33,380.05 -61.1,554.61 h -410.48 c -54.62,-142.2 -93.53,-333.15 -71.88,-575.32"
         style="fill:#b2d1f0;fill-opacity:1;fill-rule:nonzero;stroke:none"
         id="path90" /><path
         d="m 3241.78,3470.7 c -41.29,-46.71 -112.08,-140.34 -166.99,-283.21 h 410.48 c -37.6,111.7 -93.4,211.94 -172.4,286.67 -20.33,19.23 -52.56,17.51 -71.09,-3.46"
         style="fill:#374783;fill-opacity:1;fill-rule:nonzero;stroke:none"
         id="path92" /><path
         d="m 3267.47,2624.81 c 0,0 -125.91,-286.09 0,-626.25 0,0 139.91,283.84 0,626.25"
         style="fill:#769ad7;fill-opacity:1;fill-rule:nonzero;stroke:none"
         id="path94" /><path
         d="m 3437.6,2890.28 c 0,-87.47 -70.91,-158.38 -158.38,-158.38 -87.46,0 -158.37,70.91 -158.37,158.38 0,87.47 70.91,158.38 158.37,158.38 87.47,0 158.38,-70.91 158.38,-158.38"
         style="fill:#374783;fill-opacity:1;fill-rule:nonzero;stroke:none"
         id="path96" /><path
         d="m 3389.17,2890.28 c 0,-60.72 -49.22,-109.95 -109.95,-109.95 -60.72,0 -109.95,49.23 -109.95,109.95 0,60.72 49.23,109.95 109.95,109.95 60.73,0 109.95,-49.23 109.95,-109.95"
         style="fill:#f4c059;fill-opacity:1;fill-rule:nonzero;stroke:none"
         id="path98" /><g
         id="g100"><g
           id="g102"
           clip-path="url(#clipPath106)"><path
             d="m 3228.66,1189.79 c 0,-126.24 -103.8,-228.571 -231.84,-228.571 -128.05,0 -231.85,102.331 -231.85,228.571 0,126.24 103.8,228.58 231.85,228.58 128.04,0 231.84,-102.34 231.84,-228.58"
             style="fill:#ffffff;fill-opacity:1;fill-rule:nonzero;stroke:none"
             id="path108" /><path
             d="m 3913.7,1189.79 c 0,-113.09 -92.99,-204.759 -207.69,-204.759 -114.71,0 -207.7,91.669 -207.7,204.759 0,113.09 92.99,204.77 207.7,204.77 114.7,0 207.69,-91.68 207.69,-204.77"
             style="fill:#ffffff;fill-opacity:1;fill-rule:nonzero;stroke:none"
             id="path110" /><path
             d="m 3525.82,1367.24 c 0,-88.43 -72.71,-160.12 -162.41,-160.12 -89.7,0 -162.41,71.69 -162.41,160.12 0,88.42 72.71,160.11 162.41,160.11 89.7,0 162.41,-71.69 162.41,-160.11"
             style="fill:#ffffff;fill-opacity:1;fill-rule:nonzero;stroke:none"
             id="path112" /><path
             d="m 3180.61,1464.36 c 0,-61.61 -50.66,-111.55 -113.15,-111.55 -62.49,0 -113.14,49.94 -113.14,111.55 0,61.61 50.65,111.55 113.14,111.55 62.49,0 113.15,-49.94 113.15,-111.55"
             style="fill:#ffffff;fill-opacity:1;fill-rule:nonzero;stroke:none"
             id="path114" /><path
             d="m 3433.23,1556.51 c 0,-42.1 -34.61,-76.22 -77.3,-76.22 -42.69,0 -77.31,34.12 -77.31,76.22 0,42.09 34.62,76.21 77.31,76.21 42.69,0 77.3,-34.12 77.3,-76.21"
             style="fill:#ffffff;fill-opacity:1;fill-rule:nonzero;stroke:none"
             id="path116" /><path
             d="m 3355.47,1368.98 c 0,-74.59 -61.34,-135.06 -137,-135.06 -75.68,0 -137.01,60.47 -137.01,135.06 0,74.6 61.33,135.08 137.01,135.08 75.66,0 137,-60.48 137,-135.08"
             style="fill:#ffffff;fill-opacity:1;fill-rule:nonzero;stroke:none"
             id="path118" /><path
             d="M 2539.5,790.789 C 2507.27,564.941 2295.44,407.621 2066.36,439.391 1837.28,471.16 1677.7,680.012 1709.93,905.852 c 32.23,225.848 244.06,383.168 473.14,351.408 229.08,-31.78 388.66,-240.62 356.43,-466.471"
             style="fill:#ffffff;fill-opacity:1;fill-rule:nonzero;stroke:none"
             id="path120" /><path
             d="m 2941.39,1097.81 c 7.22,-170.861 -127.42,-315.13 -300.73,-322.251 -173.3,-7.118 -319.64,125.621 -326.86,296.471 -7.22,170.86 127.42,315.14 300.72,322.26 173.31,7.12 319.65,-125.63 326.87,-296.48"
             style="fill:#ffffff;fill-opacity:1;fill-rule:nonzero;stroke:none"
             id="path122" /><path
             d="m 4607.51,874.211 c 0,-241.723 -198.76,-437.672 -443.94,-437.672 -245.17,0 -443.92,195.949 -443.92,437.672 0,241.719 198.75,437.659 443.92,437.659 245.18,0 443.94,-195.94 443.94,-437.659"
             style="fill:#ffffff;fill-opacity:1;fill-rule:nonzero;stroke:none"
             id="path124" /><path
             d="m 3376.74,976.762 c 0,-171.02 -140.62,-309.641 -314.07,-309.641 -173.45,0 -314.07,138.621 -314.07,309.641 0,170.998 140.62,309.628 314.07,309.628 173.45,0 314.07,-138.63 314.07,-309.628"
             style="fill:#ffffff;fill-opacity:1;fill-rule:nonzero;stroke:none"
             id="path126" /><path
             d="m 3785.44,1087.12 c 40.31,-188.069 -81.66,-372.749 -272.42,-412.479 -190.76,-39.743 -378.08,80.511 -418.38,268.57 -40.31,188.079 81.66,372.749 272.42,412.479 190.76,39.75 378.08,-80.5 418.38,-268.57"
             style="fill:#ffffff;fill-opacity:1;fill-rule:nonzero;stroke:none"
             id="path128" /></g></g></g></g></svg>
