<svg xmlns="http://www.w3.org/2000/svg" width="738" height="174" fill="none"><path fill="url(#a)" d="m.03 106.669 7.816 7.596-7.623-2.956C1.443 131.477 7.99 153.087 22.04 174c.508-.06 1.003-.12 1.498-.192C.211 102.739 32.393 39.879 91.757 18.834 45.513 37.415 18.549 81.477 21.895 132.33c8.143-6.418 16.2-17.175 25.538-29.675l-12.298-.673 17.53-6.286c3.43-4.555 7.054-9.255 10.92-13.99 4.132-5.169 8.529-10.601 13.567-16.214L56.554 61.79l30.66-6.899a211.964 211.964 0 0 1 8.807-8.197c5.147-4.411 10.861-8.882 17.505-13.197l-9.725-2.909 17.735-1.935C131.889 22.848 144.368 17.548 160 13.39c-1.075-.084-7.514-4.591-22.663-8.798C122.623.625 99.223-3.04 74.289 3.894a101.313 101.313 0 0 0-22.857 9.267l-2.706 15.168-2.754-11.911a99.965 99.965 0 0 0-8.179 5.841l1.8 7.789-4.228-5.794c-10.317 8.75-19.377 20.144-25.792 34.471l7.37 12.151-9.58-6.899C2.481 76.525-.322 91.105.028 106.67Z"/><path fill="url(#b)" d="m.03 106.669 7.816 7.596-7.623-2.956C1.443 131.477 7.99 153.087 22.04 174c.508-.06 1.003-.12 1.498-.192C.211 102.739 32.393 39.879 91.757 18.834 45.513 37.415 18.549 81.477 21.895 132.33c8.143-6.418 16.2-17.175 25.538-29.675l-12.298-.673 17.53-6.286c3.43-4.555 7.054-9.255 10.92-13.99 4.132-5.169 8.529-10.601 13.567-16.214L56.554 61.79l30.66-6.899a211.964 211.964 0 0 1 8.807-8.197c5.147-4.411 10.861-8.882 17.505-13.197l-9.725-2.909 17.735-1.935C131.889 22.848 144.368 17.548 160 13.39c-1.075-.084-7.514-4.591-22.663-8.798C122.623.625 99.223-3.04 74.289 3.894a101.313 101.313 0 0 0-22.857 9.267l-2.706 15.168-2.754-11.911a99.965 99.965 0 0 0-8.179 5.841l1.8 7.789-4.228-5.794c-10.317 8.75-19.377 20.144-25.792 34.471l7.37 12.151-9.58-6.899C2.481 76.525-.322 91.105.028 106.67Z"/><path fill="#4339ac" d="M135.245 124.039V69.472h37.452v8.293h-27.465v15.591h21.805v6.468h-21.805v15.922h28.214v8.293zm45.504 0V66.57h9.322v57.469zm19.261-45.776v-9.122h9.572v9.122zm.085 45.776V83.073h9.32v40.966zm16.179 0 15.563-20.981-14.898-19.985h11.818l10.154 14.761 9.82-14.761h10.57l-15.064 19.985 15.813 20.981h-11.818l-10.653-15.342-10.236 15.342zm50.464-45.776v-9.122h9.57v9.122zm.084 45.776V83.073h9.32v40.966zm19.091 0V83.073h9.322l-.333 11.775h.083c1.914-7.38 6.159-12.439 14.648-12.439 8.905 0 13.815 5.805 13.815 16.005 0 2.571-.25 5.888-.416 7.629h-8.49c.167-1.575.334-3.648.334-5.556 0-6.883-2.663-10.117-8.156-10.117-7.074 0-11.485 5.971-11.485 15.756v17.913zm78.844 0-17.145-54.567h10.736l12.484 42.211h.25l12.15-41.879h9.988l11.984 41.879h.25l12.317-42.211h9.904l-17.227 54.567h-10.986l-11.652-40.22h-.25l-11.984 40.22zm102.988-21.976v3.317H436.95c.499 7.878 4.91 12.107 11.9 12.107 5.994 0 10.072-2.653 10.488-7.463h8.406c-.333 9.122-7.824 14.678-19.06 14.678-12.982 0-21.138-7.961-21.138-20.815 0-13.268 8.156-21.478 21.139-21.478 11.65 0 19.059 6.883 19.059 19.654zm-8.406-2.322v-.581c0-6.136-3.83-9.536-10.57-9.536-6.408 0-10.486 3.317-11.568 10.117zm41.648 24.961c-8.49 0-14.148-3.649-15.813-9.371h-.083c0 2.903.167 6.635.333 8.708h-9.321V66.57h9.32v18.576c0 1.741-.082 5.058-.165 7.049h.083c1.748-5.971 7.407-9.786 15.563-9.786 11.818 0 18.892 7.795 18.892 20.4 0 13.517-7.24 21.893-18.81 21.893zm-2.413-7.629c7.324 0 11.9-5.308 11.9-14.015 0-8.044-4.41-13.02-11.734-13.02-8.156 0-13.316 5.142-13.316 13.435v2.073c0 7.132 5.077 11.527 13.15 11.527zm29.961 6.966V69.472h24.052c14.065 0 21.306 6.054 21.306 15.84 0 7.048-3.08 11.858-9.488 13.019v.166c6.658.995 9.155 5.639 9.155 12.19v13.352h-10.07v-13.186c0-5.473-2.247-8.458-9.571-8.458h-15.397v21.644zm9.987-28.196h14.232c8.073 0 11.568-3.483 11.568-9.288 0-5.473-3.828-8.79-11.818-8.79h-13.982zm56.888 28.196V77.682h-16.977v-8.21h43.944v8.21h-16.98v46.357zm57.034.829c-16.312 0-28.131-10.698-28.131-28.029 0-17.415 11.652-28.196 28.13-28.196 14.399 0 24.636 8.542 24.636 21.147 0 .58-.084 1.658-.167 2.653h-8.822c.083-.746.083-1.409.083-1.824 0-8.376-6.574-13.683-15.396-13.683-10.653 0-18.31 7.712-18.31 19.903 0 12.19 7.99 19.736 18.31 19.736 9.154 0 15.563-5.224 15.563-13.102v-1.327h8.905v1.907c0 12.356-10.32 20.815-24.801 20.815z"/><defs><linearGradient id="a" x1="37.624" x2="92.451" y1="158.219" y2="14.464" gradientUnits="userSpaceOnUse"><stop stop-color="#46ADD8"/><stop offset="1" stop-color="#675AF1"/></linearGradient><linearGradient id="b" x1="37.624" x2="92.451" y1="158.219" y2="14.464" gradientUnits="userSpaceOnUse"><stop stop-color="#46ADD8"/><stop offset="1" stop-color="#675AF1"/></linearGradient></defs></svg>