<svg width="400" height="400" viewBox="0 0 400 400" fill="none" xmlns="http://www.w3.org/2000/svg">
<g opacity="0.8">
<path opacity="0.1" d="M109.091 72.7273V363.636M145.455 0V400M218.182 0V363.636M36.3636 109.091H400M36.3636 290.909H400M36.3636 254.545H400M72.7273 0V363.636M181.818 0V363.636M290.909 0V400M327.273 36.3636V400M254.545 0V363.636M363.636 400V36.3636H36.3636V363.636H363.636M0 327.273H363.636M0 218.182H363.636M0 181.818H363.636M36.3636 145.455H400M36.3636 72.7273H400" stroke="white"/>
<path opacity="0.2" d="M109.091 0V400M145.455 0V400M218.182 0V400M0 109.091H400M0 290.909H400M0 254.545H400" stroke="white"/>
<path fill-rule="evenodd" clip-rule="evenodd" d="M290.909 145.455H254.545V109.091H290.909V145.455ZM218.182 181.818V145.455H254.545V181.818H218.182ZM218.182 181.818H181.818V218.182H218.182V254.545H254.545V290.909H290.909V254.545H254.545V218.182H218.182V181.818Z" fill="#FF6D5D"/>
<path fill-rule="evenodd" clip-rule="evenodd" d="M109.091 109.091H145.455V254.545H218.182V290.909H109.091V109.091Z" fill="#CDCDCD"/>
</g>
</svg>
