<svg width="647" height="95" viewBox="0 0 647 95" fill="none" xmlns="http://www.w3.org/2000/svg">
<path d="M42.073 86.645L29.823 71.275C29.423 70.775 29.593 70.025 30.173 69.755L63.133 53.885C63.713 53.605 63.883 52.865 63.483 52.365L57.063 44.305C56.723 43.875 56.793 43.245 57.223 42.895L72.193 30.955C72.623 30.615 73.253 30.685 73.603 31.115L97.353 60.895L87.913 19.535C87.773 18.945 87.383 18.445 86.833 18.175L49.483 0.195C48.933 -0.065 48.293 -0.065 47.743 0.195L10.393 18.175C9.84298 18.435 9.44298 18.935 9.31298 19.535L4.69298 39.745L58.733 13.715C59.153 13.515 59.663 13.625 59.953 13.995L69.523 26.005C69.923 26.505 69.753 27.255 69.173 27.525L32.343 45.255C31.763 45.535 31.593 46.275 31.993 46.775L39.283 55.925C39.623 56.355 39.553 56.985 39.123 57.335L27.423 66.665C26.993 67.005 26.363 66.935 26.013 66.505L4.67298 39.745L0.0529785 59.955C-0.0870215 60.545 0.0529779 61.175 0.442978 61.645L26.293 94.065C26.673 94.545 27.253 94.815 27.853 94.815H69.313C69.923 94.815 70.493 94.535 70.873 94.065L97.323 60.885L43.283 86.915C42.863 87.115 42.363 87.005 42.063 86.635L42.073 86.645ZM48.583 49.755H48.593L48.583 49.765V49.755Z" fill="#1D4ED8"/>
<path d="M123.333 71.235V31.275H131.673V63.705H148.933V71.235H123.333Z" fill="#1D4ED8"/>
<path d="M153.323 38.805V31.275H180.773V43.725L166.353 71.235H158.883L157.903 69.495L172.443 41.985V38.805H153.323Z" fill="#1D4ED8"/>
<path d="M187.953 71.235V40.655H222.813C229.073 40.655 232.193 43.785 232.193 50.035V71.235H224.203V49.465C224.203 48.225 223.583 47.615 222.353 47.615H214.073V71.245H206.083V47.615H195.953V71.245H187.963L187.953 71.235Z" fill="#1D4ED8"/>
<path d="M240.313 82.825V40.665H257.223C263.483 40.665 266.603 43.795 266.603 50.045V61.855C266.603 68.105 263.473 71.235 257.223 71.235H248.303V82.815H240.313V82.825ZM248.303 64.285H256.753C257.983 64.285 258.603 63.665 258.603 62.435V49.465C258.603 48.225 257.983 47.615 256.753 47.615H248.303V64.295V64.285Z" fill="#1D4ED8"/>
<path d="M285.593 38.805V31.275H318.253V38.805H306.093V71.235H297.753V38.805H285.593Z" fill="#1D4ED8"/>
<path d="M321.033 61.855V50.045C321.033 43.795 324.163 40.665 330.413 40.665H337.943C344.203 40.665 347.323 43.795 347.323 50.045V58.905H329.023V62.435C329.023 63.675 329.643 64.285 330.873 64.285H346.163V68.625L342.693 71.235H330.413C324.163 71.235 321.033 68.105 321.033 61.855ZM329.033 52.765H339.343V49.465C339.343 48.225 338.723 47.615 337.493 47.615H330.893C329.653 47.615 329.043 48.235 329.043 49.465V52.765H329.033Z" fill="#1D4ED8"/>
<path d="M354.743 61.855V50.045C354.743 43.795 357.873 40.665 364.123 40.665H374.893L378.363 43.275V47.615H364.583C363.343 47.615 362.733 48.235 362.733 49.465V62.435C362.733 63.675 363.353 64.285 364.583 64.285H378.363V68.625L374.893 71.235H364.123C357.873 71.235 354.743 68.105 354.743 61.855Z" fill="#1D4ED8"/>
<path d="M385.203 71.235V28.385H393.193V40.665H402.113C408.373 40.665 411.493 43.795 411.493 50.045V71.245H403.503V49.475C403.503 48.235 402.883 47.625 401.653 47.625H393.203V71.255H385.213L385.203 71.235Z" fill="#1D4ED8"/>
<path d="M419.603 71.235V40.655H436.513C442.773 40.655 445.893 43.785 445.893 50.035V71.235H437.903V49.465C437.903 48.225 437.283 47.615 436.053 47.615H427.603V71.245H419.613L419.603 71.235Z" fill="#1D4ED8"/>
<path d="M453.533 61.855V50.045C453.533 43.795 456.663 40.665 462.913 40.665H471.023C477.273 40.665 480.403 43.795 480.403 50.045V61.855C480.403 68.105 477.273 71.235 471.023 71.235H462.913C456.663 71.235 453.533 68.105 453.533 61.855ZM461.523 62.435C461.523 63.675 462.143 64.285 463.373 64.285H470.553C471.793 64.285 472.403 63.665 472.403 62.435V49.465C472.403 48.225 471.783 47.615 470.553 47.615H463.373C462.133 47.615 461.523 48.235 461.523 49.465V62.435Z" fill="#1D4ED8"/>
<path d="M488.053 60.115V28.375H496.043V60.925C496.043 63.315 497.283 64.655 499.753 64.925V71.815C491.953 71.815 488.053 67.915 488.053 60.115Z" fill="#1D4ED8"/>
<path d="M505.773 61.855V50.045C505.773 43.795 508.903 40.665 515.153 40.665H523.263C529.513 40.665 532.643 43.795 532.643 50.045V61.855C532.643 68.105 529.513 71.235 523.263 71.235H515.153C508.903 71.235 505.773 68.105 505.773 61.855ZM513.763 62.435C513.763 63.675 514.383 64.285 515.613 64.285H522.793C524.033 64.285 524.643 63.665 524.643 62.435V49.465C524.643 48.225 524.023 47.615 522.793 47.615H515.613C514.373 47.615 513.763 48.235 513.763 49.465V62.435Z" fill="#1D4ED8"/>
<path d="M539.823 50.045C539.823 43.795 542.953 40.665 549.203 40.665H566.113V73.445C566.113 79.695 562.983 82.825 556.733 82.825H545.903L542.433 80.215V75.875H556.273C557.513 75.875 558.123 75.255 558.123 74.025V71.245H549.203C542.943 71.245 539.823 68.115 539.823 61.865V50.045ZM547.813 62.435C547.813 63.675 548.433 64.285 549.663 64.285H558.113V47.605H549.663C548.423 47.605 547.813 48.225 547.813 49.455V62.435Z" fill="#1D4ED8"/>
<path d="M574.043 35.625V27.805H582.383V35.625H574.043ZM574.223 71.235V40.655H582.213V71.235H574.223Z" fill="#1D4ED8"/>
<path d="M590.093 61.855V50.045C590.093 43.795 593.223 40.665 599.473 40.665H607.003C613.263 40.665 616.383 43.795 616.383 50.045V58.905H598.083V62.435C598.083 63.675 598.703 64.285 599.933 64.285H615.223V68.625L611.753 71.235H599.473C593.223 71.235 590.093 68.105 590.093 61.855ZM598.083 52.765H608.393V49.465C608.393 48.225 607.773 47.615 606.543 47.615H599.943C598.703 47.615 598.093 48.235 598.093 49.465V52.765H598.083Z" fill="#1D4ED8"/>
<path d="M623.213 68.635V64.295H636.533C637.843 64.295 638.503 63.565 638.503 62.095C638.503 60.625 637.963 59.745 636.883 59.545L630.633 58.505C625.693 57.655 623.223 54.795 623.223 49.935C623.223 43.755 626.353 40.665 632.603 40.665H641.583L645.063 43.275V47.615H633.073C631.763 47.615 631.103 48.345 631.103 49.815C631.103 51.355 631.703 52.225 632.903 52.425L639.103 53.465C644.003 54.275 646.453 57.095 646.453 61.915C646.453 68.135 643.303 71.235 637.013 71.235H626.703L623.233 68.625L623.213 68.635Z" fill="#1D4ED8"/>
</svg>
